<svg width="28" height="28" viewBox="0 0 28 28" fill="none" xmlns="http://www.w3.org/2000/svg">
<path d="M21.7432 21.4326C20.9785 22.2061 19.7129 22.2061 18.9482 21.4326C18.3857 20.8701 18.2363 20.0352 18.5 19.332L17.9287 18.7695C16.8389 19.6133 15.4678 20.1143 13.9824 20.1143C13.2881 20.1143 12.6113 20.0088 11.9873 19.7979C9.71973 21.3623 7.83008 21.9863 6.91602 21.0811C6.03711 20.1934 6.59082 18.4004 8.0498 16.2207C7.70703 15.4385 7.52246 14.5684 7.52246 13.6543C7.52246 12.1689 8.02344 10.8066 8.86719 9.7168L8.2959 9.14551C7.59277 9.40918 6.7666 9.25977 6.21289 8.68848C5.43945 7.93262 5.43945 6.6582 6.21289 5.90234C6.97754 5.12012 8.24316 5.12012 8.99902 5.90234C9.57031 6.45605 9.71973 7.28223 9.45605 7.98535L10.0273 8.55664C11.1172 7.7041 12.4971 7.19434 13.9824 7.19434C14.8613 7.19434 15.6875 7.37012 16.4521 7.68652C18.8252 5.99902 20.8115 5.2959 21.752 6.24512C22.7275 7.21191 21.9541 9.28613 20.1611 11.7559C20.3457 12.3535 20.4512 12.9951 20.4512 13.6543C20.4512 15.1484 19.9414 16.5283 19.0801 17.6182L19.6426 18.1895C20.3545 17.917 21.1807 18.0664 21.7432 18.6377C22.5166 19.4023 22.5166 20.668 21.7432 21.4326ZM20.6533 7.34375C20.3281 7.01855 19.2734 7.51074 17.876 8.50391C18.4912 8.96973 19.0186 9.54102 19.4404 10.1914C20.46 8.76758 20.9785 7.67773 20.6533 7.34375ZM13.9824 8.86426C12.9541 8.86426 11.9961 9.18945 11.2139 9.74316L12.5146 11.0439C13.2969 10.2793 14.0791 9.56738 14.835 8.93457C14.5625 8.89062 14.2725 8.86426 13.9824 8.86426ZM18.333 11.624C17.9287 10.7715 17.2871 10.0596 16.4873 9.56738C15.5732 10.3145 14.5889 11.1934 13.6133 12.1426L15.8457 14.3838C16.7598 13.4521 17.6123 12.5029 18.333 11.624ZM9.1748 13.6631C9.1748 13.9795 9.20117 14.2871 9.2627 14.5859C9.88672 13.8125 10.5898 13.0127 11.3633 12.2041L10.0537 10.9033C9.5 11.6855 9.1748 12.6348 9.1748 13.6631ZM14.6943 15.5264L12.4619 13.3115C11.5127 14.3047 10.6426 15.3066 9.92188 16.2207C10.3965 16.9766 11.082 17.5918 11.8906 17.9873C12.7783 17.2842 13.7363 16.4492 14.6943 15.5264ZM18.79 13.6631C18.79 13.6016 18.79 13.54 18.79 13.4873C18.2275 14.1377 17.6123 14.8145 16.9531 15.4912L17.9023 16.4404C18.4561 15.6494 18.79 14.6914 18.79 13.6631ZM13.9824 18.4619C15.0107 18.4619 15.96 18.1367 16.751 17.583L15.793 16.6338C15.0986 17.293 14.4131 17.9082 13.7451 18.4619C13.8242 18.4619 13.9033 18.4619 13.9824 18.4619ZM8.02344 19.9736C8.32227 20.2637 9.22754 19.8857 10.4404 19.0596C9.85156 18.6729 9.32422 18.1895 8.88477 17.627C8.09375 18.8047 7.7334 19.6836 8.02344 19.9736Z" fill="url(#paint0_linear_127_40)"/>
<defs>
<linearGradient id="paint0_linear_127_40" x1="13.978" y1="5.31567" x2="13.978" y2="22.0127" gradientUnits="userSpaceOnUse">
<stop stop-color="#00E7A0"/>
<stop offset="0.711538" stop-color="#01C5AF"/>
</linearGradient>
</defs>
</svg>
