<svg width="28" height="28" viewBox="0 0 28 28" fill="none" xmlns="http://www.w3.org/2000/svg">
<g clip-path="url(#clip0_127_34)">
<path d="M4.56055 9.28613C4.56055 8.80273 4.61328 7.29102 4.83301 6.42969C5.09668 5.33984 6.21289 5.33105 6.80176 6.0166C7.74219 7.08008 8.86719 7.48438 10.2031 7.48438C11.7939 7.48438 13.2441 7.08008 14.6943 7.08008C18.9219 7.08008 21.9893 9.80469 21.9893 13.5752C21.9893 14.6123 21.7783 15.5703 21.3828 16.4141C22.3672 17.8115 23.4395 19.5957 23.4395 20.668C23.4395 21.459 22.8594 22.1182 22.1475 22.1182C21.7871 22.1182 21.4707 21.9248 21.3301 21.4766C20.9258 20.2021 20.6973 19.0859 20.2227 18.1104C18.9131 19.4639 16.9707 20.2725 14.6592 20.2725C8.55078 20.2725 4.56055 15.9131 4.56055 9.28613ZM9.71973 11.4219C9.57031 10.9385 10.0801 10.6572 10.4053 11.0703C11.3545 12.292 12.7871 12.7227 14.5625 13.0127C17.1465 13.417 18.9658 14.0498 20.2051 15.0781C20.3369 14.6123 20.416 14.1025 20.416 13.5752C20.416 10.7012 18.0518 8.65332 14.6943 8.65332C14.1143 8.65332 13.499 8.73242 12.8047 8.8291C12.0312 8.93457 11.1611 9.05762 10.2031 9.05762C8.84082 9.05762 7.36426 8.5918 6.38867 7.76562C6.29199 7.68652 6.22168 7.7041 6.2041 7.83594C6.14258 8.24023 6.13379 8.79395 6.13379 9.28613C6.13379 15.043 9.43848 18.6992 14.6592 18.6992C16.6631 18.6992 18.2979 17.9785 19.3086 16.7656C18.2188 15.5527 16.9092 14.999 14.0615 14.3311C11.9258 13.8213 10.2559 13.0654 9.71973 11.4219Z" fill="url(#paint0_linear_127_34)"/>
</g>
<defs>
<linearGradient id="paint0_linear_127_34" x1="14" y1="0" x2="14" y2="28" gradientUnits="userSpaceOnUse">
<stop stop-color="#00E7A0"/>
<stop offset="0.711538" stop-color="#01C5AF"/>
</linearGradient>
<clipPath id="clip0_127_34">
<rect width="28" height="28" fill="white"/>
</clipPath>
</defs>
</svg>
